<?xml version="1.0" encoding="UTF-8" standalone="no"?>
<!-- Created with Inkscape (http://www.inkscape.org/) -->

<svg
   width="256"
   height="255.99957"
   viewBox="0 0 67.733334 67.733221"
   version="1.1"
   id="svg1"
   xmlns="http://www.w3.org/2000/svg"
   xmlns:svg="http://www.w3.org/2000/svg">
  <defs
     id="defs1" />
  <g
     id="layer1">
    <path
       id="path1"
       style="fill:#f0f1f2;fill-opacity:1;stroke:none;stroke-width:0.272256;stroke-dasharray:none"
       d="M 33.866666,0 C 15.162736,-5.3493624e-5 -5.3493716e-5,15.16271 0,33.866609 -5.2680465e-5,52.570508 15.162737,67.733272 33.866666,67.733219 52.570597,67.733271 67.733386,52.570508 67.733334,33.866609 67.733387,15.162711 52.570597,-5.2680374e-5 33.866666,0 Z m 0,1.5679275 C 51.704698,1.5678609 66.165472,16.028609 66.165404,33.866609 66.165472,51.70461 51.704698,66.165357 33.866666,66.165291 16.028636,66.165358 1.567863,51.70461 1.5679301,33.866609 1.5678628,16.028609 16.028636,1.5678602 33.866666,1.5679275 Z m 0,0.9448033 C 16.550263,2.5127371 2.5127411,16.550237 2.512735,33.866609 c 6.4e-6,17.316373 14.037528,31.353871 31.353931,31.353878 5.014058,-0.02528 9.948853,-1.252335 14.390506,-3.578941 l 0.136974,-0.07368 0.221026,-0.120889 c 5.516613,-2.954433 10.022646,-7.492615 12.938796,-13.029569 l 0.185743,-0.33932 C 64.004752,43.681755 65.197156,38.812056 65.220599,33.86661 65.220593,16.550267 51.18307,2.5127371 33.866666,2.5127308 Z m -3.326273,3.320561 c 1.073678,0.1012037 1.888053,1.0281539 1.888053,2.1744486 V 26.127108 c 1.85e-4,0.650224 -0.860687,0.881004 -1.186064,0.318047 L 22.145586,10.690131 C 21.490553,9.555597 21.906134,8.1477827 23.121002,7.6585627 25.349702,6.7610769 27.682958,6.1508748 30.065656,5.842112 30.228007,5.821077 30.38701,5.818786 30.540393,5.833282 Z m 6.652548,0 c 0.153384,-0.014457 0.312387,-0.012702 0.474737,0.0083 2.382697,0.3087629 4.715955,0.9194835 6.944654,1.8169695 1.214869,0.4892195 1.630437,1.8970258 0.975416,3.0315687 l -9.096796,15.756063 c -0.325353,0.563015 -1.186301,0.331696 -1.186064,-0.318569 V 8.0077404 c 0,-1.1462947 0.814377,-2.073249 1.888053,-2.1744486 z m 12.698573,5.2423352 c 0.437543,-0.0038 0.881248,0.134656 1.269598,0.435306 1.894259,1.466465 3.594798,3.167007 5.06127,5.061261 0.801734,1.035598 0.452779,2.465256 -0.681754,3.120289 l -15.690715,9.059424 c -0.563073,0.324914 -1.193447,-0.30546 -0.868536,-0.868533 l 9.059441,-15.690689 c 0.409396,-0.709084 1.121457,-1.110684 1.850696,-1.117058 z m -32.049175,5.19e-4 c 0.72923,0.0065 1.441312,0.407972 1.850696,1.117058 l 4.332822,7.505505 c -0.437371,-0.155231 -0.901483,-0.219292 -1.364546,-0.188338 -0.816405,0.05831 -1.584227,0.409161 -2.163038,0.987867 -0.922203,0.922584 -1.235903,2.29086 -0.807313,3.522908 l -7.497735,-4.328144 c -1.134542,-0.655016 -1.483483,-2.084692 -0.681755,-3.12029 1.466474,-1.894256 3.16701,-3.59479 5.06127,-5.061261 0.388351,-0.300643 0.83206,-0.439131 1.269599,-0.435305 z m 4.887978,9.403933 c 0.703099,-0.05019 1.393825,0.207647 1.892204,0.706138 0.948902,0.94906 0.948902,2.487204 0,3.436262 -0.949056,0.948933 -2.487211,0.948933 -3.436268,0 -0.948903,-0.949058 -0.948903,-2.487202 0,-3.436262 0.413328,-0.413445 0.960944,-0.664346 1.544064,-0.706138 z m 0.05137,0.711326 c -0.412074,0.02932 -0.799448,0.206557 -1.091636,0.498603 -0.670641,0.670543 -0.670641,1.757619 0,2.428161 0.670539,0.670661 1.757624,0.670661 2.428164,0 0.67064,-0.670542 0.67064,-1.757618 0,-2.428161 -0.352155,-0.352009 -0.839885,-0.53415 -1.336528,-0.498603 z M 9.6939794,21.841509 c 0.3357296,0.02091 0.6770836,0.11981 0.9961696,0.304039 l 15.754533,9.09678 c 0.562898,0.325401 0.331617,1.186197 -0.318568,1.186063 H 8.0077541 c -1.3100525,0 -2.333939,-1.063977 -2.1656321,-2.362786 0.3087627,-2.382695 0.9189662,-4.715947 1.8164537,-6.944642 0.3057626,-0.759291 0.970476,-1.206399 1.7028281,-1.274785 0.1098546,-0.01019 0.2206662,-0.0118 0.3325756,-0.0047 z m 48.3453756,0 c 0.111911,-0.0069 0.222718,-0.0054 0.332575,0.0047 0.732379,0.06839 1.397552,0.515505 1.703347,1.274784 0.897596,2.228695 1.508114,4.562439 1.816972,6.94516 0.168357,1.298805 -0.856097,2.362268 -2.16615,2.362268 H 41.605144 c -0.650301,2.39e-4 -0.881127,-0.860738 -0.318049,-1.186062 l 15.75609,-9.096781 c 0.319094,-0.184224 0.660437,-0.28313 0.99617,-0.304039 z m -24.411872,8.680154 c 0.970021,-0.0692 1.92271,0.286118 2.610277,0.973858 1.309194,1.309428 1.309194,3.432751 0,4.742176 -1.309424,1.309237 -3.432761,1.309237 -4.742186,0 -1.309195,-1.309425 -1.309195,-3.432748 0,-4.742176 0.570308,-0.57049 1.327306,-0.916218 2.131909,-0.973858 z M 8.0077541,35.304828 H 26.12819 c 0.650301,-2.89e-4 0.881127,0.860736 0.318049,1.186062 l -15.7426,9.08848 C 9.5617361,46.238619 8.1445985,45.821244 7.6528685,44.598247 6.7585116,42.373858 6.1502268,40.04523 5.842122,37.667613 5.6738153,36.368805 6.6977026,35.304828 8.0077541,35.304828 Z m 33.5994659,0 h 18.193592 c 0.875437,-1.96e-4 1.314759,1.058348 0.695762,1.677402 l -5.042073,5.041545 c -0.989288,0.989263 -2.519815,1.19076 -3.731487,0.49134 L 41.288652,36.49089 c -0.562975,-0.325367 -0.331668,-1.186267 0.318568,-1.186062 z m -2.019321,3.594507 c 0.09139,0.0081 0.181175,0.03607 0.262533,0.08301 l 9.766617,5.638728 c 1.03628,0.598473 1.223365,2.016757 0.377195,2.862947 l -2.51014,2.510136 c -0.84619,0.846171 -2.264478,0.659082 -2.862952,-0.377195 l -5.638737,-9.766598 c -0.197419,-0.342177 -0.03862,-0.779493 0.332576,-0.914711 0.08827,-0.03215 0.181523,-0.04431 0.272908,-0.03632 z m -11.303935,0.0021 v 5.19e-4 c 0.449152,0.05896 0.694413,0.555554 0.467993,0.947916 l -9.059441,15.690655 c -0.655034,1.134531 -2.084693,1.483483 -3.120294,0.681753 -1.894257,-1.466532 -3.594802,-3.167004 -5.06127,-5.061262 -0.801732,-1.035598 -0.45278,-2.465256 0.681754,-3.120289 l 15.690715,-9.059424 c 0.121073,-0.06988 0.261952,-0.09806 0.400543,-0.0799 z m 3.398393,2.078464 c 0.389333,-0.06878 0.746248,0.230355 0.746089,0.625718 V 59.72603 c 0,1.310051 -1.063983,2.334504 -2.36279,2.166147 -2.382727,-0.308859 -4.715953,-0.919374 -6.944654,-1.81697 -1.214846,-0.489272 -1.630438,-1.897025 -0.975416,-3.031568 l 9.096796,-15.756062 c 0.09391,-0.162537 0.25512,-0.275007 0.439975,-0.30767 z m 4.36862,0 c 0.184856,0.03266 0.346056,0.145656 0.439975,0.308189 l 6.024753,10.434344 c 0.699449,1.211661 0.497953,2.742208 -0.49134,3.73148 l -5.042072,5.042584 c -0.619055,0.618999 -1.677599,0.180194 -1.677405,-0.695242 V 41.60611 c -1.29e-4,-0.395347 0.356765,-0.694988 0.746089,-0.626236 z m 22.010688,1.048571 0.773069,0.773067 c -0.300256,0.05672 -0.565183,0.143172 -0.795379,0.259938 -0.230197,0.116766 -0.441153,0.270974 -0.632983,0.462803 -0.343628,0.343626 -0.503798,0.724421 -0.480444,1.141444 0.02335,0.417021 0.228344,0.818782 0.615342,1.205778 0.385329,0.385329 0.786682,0.589913 1.203706,0.613266 0.417022,0.02335 0.797298,-0.136817 1.140925,-0.480443 0.19183,-0.191831 0.346037,-0.403305 0.462804,-0.633502 0.116767,-0.230196 0.203741,-0.495121 0.260457,-0.795377 l 0.773069,0.773068 c -0.08507,0.268562 -0.200423,0.522079 -0.345545,0.760616 -0.145124,0.238537 -0.321743,0.462345 -0.530254,0.670856 -0.622198,0.622198 -1.288477,0.941613 -1.999085,0.958294 -0.712275,0.01501 -1.366219,-0.275621 -1.961728,-0.871128 -0.597178,-0.597177 -0.887292,-1.25112 -0.870611,-1.961726 0.01501,-0.712274 0.333501,-1.379478 0.9557,-2.001675 0.208512,-0.208512 0.431802,-0.385128 0.670339,-0.530252 0.238538,-0.145124 0.492055,-0.259955 0.760618,-0.345027 z m -4.170943,4.37899 c 0.341724,-0.01076 0.668773,0.140077 0.981123,0.452426 0.246878,0.246877 0.389157,0.509543 0.427524,0.788114 0.04003,0.276903 -0.02268,0.572982 -0.18782,0.888251 0.161805,-0.101754 0.34809,-0.151206 0.55827,-0.147869 0.21018,0 0.476031,0.05449 0.797974,0.162915 l 1.584014,0.538034 -1.025744,1.025742 -1.383742,-0.472661 c -0.278572,-0.09508 -0.499603,-0.129419 -0.663077,-0.10273 -0.161804,0.02502 -0.321049,0.116108 -0.477849,0.272909 l -0.27291,0.272389 1.413836,1.413833 -0.963484,0.963481 -3.735637,-3.73563 1.471426,-1.471424 c 0.492087,-0.492086 0.935077,-0.769866 1.328745,-0.833253 0.04942,-0.0081 0.09853,-0.01299 0.147351,-0.01453 z m -0.337764,1.325629 c -0.160137,0.01334 -0.340866,0.120879 -0.542706,0.322718 l -0.405731,0.405212 0.958294,0.958292 0.405733,-0.405211 c 0.201838,-0.201839 0.308446,-0.383494 0.320123,-0.545299 0.01334,-0.163472 -0.06581,-0.331459 -0.237628,-0.503272 -0.170145,-0.170145 -0.336281,-0.247452 -0.498085,-0.23244 z m -3.553006,1.936822 3.735637,3.735631 -0.910561,0.910559 -2.732723,-2.732199 1.153897,2.87488 -0.610673,0.610672 -2.874885,-1.153376 2.732204,2.732199 -0.913156,0.913154 -3.735637,-3.735631 1.226016,-1.226013 2.849979,1.148187 -1.14352,-2.854644 z m -4.653982,4.653974 0.72793,0.727928 -1.238467,1.238465 3.007706,3.007703 -0.963482,0.963482 -3.007707,-3.007702 -1.241063,1.241059 -0.72793,-0.727929 z" />
  </g>
</svg>
