<?xml version="1.0" encoding="UTF-8" standalone="no"?>
<!-- Created with Inkscape (http://www.inkscape.org/) -->

<svg
   width="512"
   height="512"
   viewBox="0 0 512 512"
   version="1.1"
   id="svg1"
   xmlns="http://www.w3.org/2000/svg"
   xmlns:svg="http://www.w3.org/2000/svg">
  <defs
     id="defs1" />
  <g
     id="layer1">
    <g
       id="g1"
       transform="translate(1.323055e-5)">
      <rect
         style="fill:#a33332;fill-opacity:1;stroke:none;stroke-width:1.45522"
         id="rect3"
         width="362.03867"
         height="362.03867"
         x="-181.01933"
         y="181.01933"
         transform="rotate(-44.999999)" />
      <path
         id="rect2"
         style="fill:#ffffff;fill-opacity:1;stroke:none;stroke-width:1.45522"
         d="M 162.06833,276.96765 84.706427,354.32955 -87.64533,181.9778 l 0.0069,-0.007 -0.951555,-0.95155 -21.036425,21.03642 40.296799,40.2968 L -181.01933,354.04229 -160.06162,375 -48.3719,263.31027 63.676906,375.35907 -48.011437,487.04742 l 20.957706,20.9577 55.357345,-55.35734 133.458116,-0.23479 z m -29.8145,71.7299 -0.12982,74.07773 -74.079099,0.1312 z m -180.625729,-60.5612 -99.284971,99.28497 20.96047,20.96047 63.055415,-63.05542 -17.738435,108.36964 20.960468,20.96047 99.28221,-99.28222 -20.960468,-20.96046 -63.051274,63.05127 17.737053,-108.36826 z"
         transform="rotate(-44.999999)" />
    </g>
  </g>
</svg>
