<?xml version="1.0" encoding="UTF-8" standalone="no"?>
<!-- Created with Inkscape (http://www.inkscape.org/) -->

<svg
   width="512"
   height="512"
   viewBox="0 0 512 512"
   version="1.1"
   id="svg1"
   inkscape:version="1.3.2 (091e20ef0f, 2023-11-25)"
   sodipodi:docname="tnp_circle.inkscape.svg"
   inkscape:export-filename="tnp_circle.svg"
   inkscape:export-xdpi="96"
   inkscape:export-ydpi="96"
   xmlns:inkscape="http://www.inkscape.org/namespaces/inkscape"
   xmlns:sodipodi="http://sodipodi.sourceforge.net/DTD/sodipodi-0.dtd"
   xmlns="http://www.w3.org/2000/svg"
   xmlns:svg="http://www.w3.org/2000/svg">
  <sodipodi:namedview
     id="namedview1"
     pagecolor="#ffffff"
     bordercolor="#000000"
     borderopacity="0.25"
     inkscape:showpageshadow="2"
     inkscape:pageopacity="0.0"
     inkscape:pagecheckerboard="0"
     inkscape:deskcolor="#d1d1d1"
     inkscape:document-units="px"
     inkscape:zoom="1.1464844"
     inkscape:cx="222.41908"
     inkscape:cy="377.67631"
     inkscape:window-width="2256"
     inkscape:window-height="1426"
     inkscape:window-x="0"
     inkscape:window-y="0"
     inkscape:window-maximized="1"
     inkscape:current-layer="layer1" />
  <defs
     id="defs1" />
  <g
     inkscape:label="Layer 1"
     inkscape:groupmode="layer"
     id="layer1">
    <circle
       style="fill:#a33332;stroke:none;stroke-width:1.029;fill-opacity:1"
       id="path4"
       cx="256"
       cy="256"
       r="256" />
    <path
       id="path1"
       style="fill:#ffffff;stroke:none;stroke-width:4.09898;fill-opacity:1"
       d="M 312.0918 77.167969 L 312.0918 189.57617 L 61.658203 189.57617 L 61.658203 220.13477 L 118.82812 220.13477 L 118.82812 382.42383 L 149.28125 382.42383 L 149.28125 220.13477 L 312.0918 220.13477 L 312.0918 382.42188 L 342.54297 382.42188 L 342.54297 301.98633 L 439.33203 204.85547 L 312.0918 77.167969 z M 342.54297 150.94141 L 396.26758 204.85547 L 342.54297 258.76953 L 342.54297 150.94141 z M 167.31641 238.16992 L 167.31641 382.43555 L 197.77148 382.43555 L 197.77148 290.81445 L 263.61914 382.43359 L 294.07422 382.43359 L 294.07422 238.17188 L 263.61914 238.17188 L 263.61914 329.78906 L 197.77148 238.16992 L 167.31641 238.16992 z " />
  </g>
</svg>
